<svg xmlns="http://www.w3.org/2000/svg" width="24.75" height="40.75" viewBox="0 0 24.75 40.75">
  <g id="ico-orange-smartphone" transform="translate(0.375 0.375)">
    <g id="Group_2166" data-name="Group 2166" transform="translate(0)">
      <g id="Group_2165" data-name="Group 2165">
        <path id="Path_63" data-name="Path 63" d="M122.4,0h-16a4.006,4.006,0,0,0-4,4V36a4,4,0,0,0,4,4h16a4,4,0,0,0,4-4V4A4,4,0,0,0,122.4,0Zm2.4,36a2.4,2.4,0,0,1-2.4,2.4h-16A2.4,2.4,0,0,1,104,36V4a2.4,2.4,0,0,1,2.4-2.4h16A2.4,2.4,0,0,1,124.8,4V36Z" transform="translate(-102.4)" fill="#f5893e" stroke="#f5893e" stroke-width="0.75"/>
      </g>
    </g>
    <g id="Group_2168" data-name="Group 2168" transform="translate(9.395 3.473)">
      <g id="Group_2167" data-name="Group 2167">
        <path id="Path_64" data-name="Path 64" d="M229.621,40.96h-3.473a.868.868,0,1,0,0,1.736h3.473a.868.868,0,0,0,0-1.736Z" transform="translate(-225.28 -40.96)" fill="#f5893e" stroke="#f5893e" stroke-width="0.75"/>
      </g>
    </g>
    <g id="Group_2170" data-name="Group 2170" transform="translate(11.132 34.791)">
      <g id="Group_2169" data-name="Group 2169">
        <path id="Path_65" data-name="Path 65" d="M246.628,450.56a.868.868,0,1,0,.868.868A.869.869,0,0,0,246.628,450.56Z" transform="translate(-245.76 -450.56)" fill="#f5893e" stroke="#f5893e" stroke-width="0.75"/>
      </g>
    </g>
    <g id="Group_2172" data-name="Group 2172" transform="translate(0 6.534)">
      <g id="Group_2171" data-name="Group 2171">
        <path id="Path_66" data-name="Path 66" d="M125.6,81.92H103.2a.871.871,0,0,0,0,1.736h22.4a.871.871,0,0,0,0-1.736Z" transform="translate(-102.4 -81.92)" fill="#f5893e" stroke="#f5893e" stroke-width="0.75"/>
      </g>
    </g>
    <g id="Group_2174" data-name="Group 2174" transform="translate(0 31.73)">
      <g id="Group_2173" data-name="Group 2173">
        <path id="Path_67" data-name="Path 67" d="M125.6,409.6H103.2a.871.871,0,0,0,0,1.736h22.4a.871.871,0,0,0,0-1.736Z" transform="translate(-102.4 -409.6)" fill="#f5893e" stroke="#f5893e" stroke-width="0.75"/>
      </g>
    </g>
  </g>
</svg>
