<svg id="ico-orange-monthly-payments" xmlns="http://www.w3.org/2000/svg" xmlns:xlink="http://www.w3.org/1999/xlink" width="80.749" height="64" viewBox="0 0 80.749 64">
  <defs>
    <clipPath id="clip-path">
      <rect id="Rectangle_221" data-name="Rectangle 221" width="80.749" height="64" fill="#f5893e"/>
    </clipPath>
  </defs>
  <g id="Group_2274" data-name="Group 2274" clip-path="url(#clip-path)">
    <path id="Path_83" data-name="Path 83" d="M79.314,6.9A6.026,6.026,0,0,0,75.188,4.77L18.324.022a6.065,6.065,0,0,0-6.547,5.52L10.633,16.275H6.065A6.072,6.072,0,0,0,0,22.34v35.6A6.072,6.072,0,0,0,6.065,64H63.127a6.072,6.072,0,0,0,6.065-6.065V52.161l2.025.169q.256.021.509.021a6.073,6.073,0,0,0,6.039-5.56l2.962-35.472A6.026,6.026,0,0,0,79.314,6.9ZM6.065,19.429H63.127a2.914,2.914,0,0,1,2.911,2.911v3.244H3.154V22.34A2.914,2.914,0,0,1,6.065,19.429ZM3.154,28.737H66.038v6.543H3.154ZM63.127,60.846H6.065a2.914,2.914,0,0,1-2.911-2.911v-19.5H66.038v19.5A2.914,2.914,0,0,1,63.127,60.846Zm14.457-49.79L74.622,46.529a2.914,2.914,0,0,1-3.143,2.658L69.192,49V22.34a6.072,6.072,0,0,0-6.065-6.065H13.805L14.915,5.86c0-.012,0-.024,0-.036a2.913,2.913,0,0,1,3.143-2.658L74.926,7.913a2.911,2.911,0,0,1,2.658,3.143" transform="translate(0 0)" fill="#f5893e"/>
    <path id="Path_84" data-name="Path 84" d="M287.387,273.433H272.208a1.577,1.577,0,0,0-1.577,1.577v9.9a1.577,1.577,0,0,0,1.577,1.577h15.178a1.577,1.577,0,0,0,1.577-1.577v-9.9a1.577,1.577,0,0,0-1.577-1.577m-1.577,9.9H273.785v-6.748H285.81Z" transform="translate(-227.949 -230.309)" fill="#f5893e"/>
  </g>
</svg>
