<svg id="ico-orange-pivot" xmlns="http://www.w3.org/2000/svg" width="40" height="40" viewBox="0 0 40 40">
  <g id="Group_2176" data-name="Group 2176" transform="translate(2.394)">
    <g id="Group_2175" data-name="Group 2175">
      <path id="Path_76" data-name="Path 76" d="M64.43,5.988A1.6,1.6,0,0,0,62.74,7.523l-.206,2.465C59.039,4,52.972,0,45.943,0,38.381,0,31.716,4.707,28.408,11.773a1.772,1.772,0,0,0,.677,2.281,1.5,1.5,0,0,0,2.092-.739c2.8-5.979,8.422-9.924,14.766-9.924A16.3,16.3,0,0,1,59.932,11.82l-2.217-1.727a1.474,1.474,0,0,0-2.169.394,1.8,1.8,0,0,0,.362,2.365l6.722,5.236a1.54,1.54,0,0,0,2.452-1.226l.755-9.032A1.661,1.661,0,0,0,64.43,5.988Z" transform="translate(-28.237)" fill="#f5893e"/>
    </g>
  </g>
  <g id="Group_2178" data-name="Group 2178" transform="translate(0 21.594)">
    <g id="Group_2177" data-name="Group 2177">
      <path id="Path_77" data-name="Path 77" d="M36.759,299.264a1.5,1.5,0,0,0-2.092.739c-2.8,5.979-8.422,9.924-14.766,9.924A16.3,16.3,0,0,1,5.913,301.5l2.217,1.727a1.474,1.474,0,0,0,2.169-.394,1.8,1.8,0,0,0-.362-2.365l-6.722-5.236a1.54,1.54,0,0,0-2.452,1.226l-.755,9.032a1.661,1.661,0,0,0,1.407,1.843A1.6,1.6,0,0,0,3.1,305.8l.206-2.465c3.495,5.986,9.562,9.988,16.591,9.988,7.562,0,14.227-4.707,17.535-11.773A1.772,1.772,0,0,0,36.759,299.264Z" transform="translate(-0.001 -294.913)" fill="#f5893e"/>
    </g>
  </g>
</svg>
