<svg id="ico-orange-wind" xmlns="http://www.w3.org/2000/svg" width="50.909" height="40" viewBox="0 0 50.909 40">
  <g id="Group_2160" data-name="Group 2160" transform="translate(0.142 7.335)">
    <g id="Group_2159" data-name="Group 2159">
      <path id="Path_60" data-name="Path 60" d="M44.76,112a7.227,7.227,0,0,0-7.273,7.163,1.818,1.818,0,0,0,3.637,0,3.637,3.637,0,1,1,3.637,3.582H3.084a1.791,1.791,0,1,0,0,3.582H44.76a7.164,7.164,0,1,0,0-14.327Z" transform="translate(-1.266 -112)" fill="#f5893e"/>
    </g>
  </g>
  <g id="Group_2162" data-name="Group 2162" transform="translate(0 0)">
    <g id="Group_2161" data-name="Group 2161">
      <path id="Path_61" data-name="Path 61" d="M25.072,48a7.171,7.171,0,0,0-7.164,7.164,1.791,1.791,0,1,0,3.582,0,3.582,3.582,0,1,1,3.582,3.582H1.791a1.791,1.791,0,0,0,0,3.582H25.072a7.164,7.164,0,0,0,0-14.327Z" transform="translate(0 -48)" fill="#f5893e"/>
    </g>
  </g>
  <g id="Group_2164" data-name="Group 2164" transform="translate(0 25.673)">
    <g id="Group_2163" data-name="Group 2163">
      <path id="Path_62" data-name="Path 62" d="M25.072,272H1.791a1.791,1.791,0,1,0,0,3.582H25.072a3.582,3.582,0,1,1-3.582,3.582,1.791,1.791,0,1,0-3.582,0A7.164,7.164,0,1,0,25.072,272Z" transform="translate(0 -272)" fill="#f5893e"/>
    </g>
  </g>
</svg>
