<svg id="ico-orange-low-interest-rates" xmlns="http://www.w3.org/2000/svg" xmlns:xlink="http://www.w3.org/1999/xlink" width="50.553" height="64" viewBox="0 0 50.553 64">
  <defs>
    <clipPath id="clip-path">
      <rect id="Rectangle_222" data-name="Rectangle 222" width="50.553" height="64" fill="#f5893e"/>
    </clipPath>
  </defs>
  <g id="Group_2276" data-name="Group 2276" clip-path="url(#clip-path)">
    <path id="Path_85" data-name="Path 85" d="M126.74,320.865Z" transform="translate(-101.46 -256.865)" fill="#f5893e"/>
    <path id="Path_86" data-name="Path 86" d="M132.586,200.571a4.56,4.56,0,1,0,3.225-1.336,4.527,4.527,0,0,0-3.225,1.336m4.195,2.252a1.371,1.371,0,1,1-1.941,1.937,1.344,1.344,0,0,1-.4-.961,1.372,1.372,0,0,1,2.34-.975" transform="translate(-105.071 -159.495)" fill="#f5893e"/>
    <path id="Path_87" data-name="Path 87" d="M25.28,64c13.936,0,25.274-10.757,25.274-23.979,0-10.151-6.9-20.365-17.567-26.02a.6.6,0,0,1-.267-.77l2.968-6.875a4.681,4.681,0,0,0-1.155-5.34A3.857,3.857,0,0,0,29.827.629l-.834.537a.669.669,0,0,1-.764,0L27.372.619a3.847,3.847,0,0,0-4.187,0l-.862.549a.664.664,0,0,1-.754,0L20.724.625a3.855,3.855,0,0,0-4.7.389,4.684,4.684,0,0,0-1.155,5.34l2.97,6.879a.591.591,0,0,1-.269.764C6.9,19.654,0,29.866,0,40.017,0,53.243,11.341,64,25.28,64M17.794,5.091a1.475,1.475,0,0,1,.359-1.705.714.714,0,0,1,.473-.191A.686.686,0,0,1,19,3.308l.852.549a3.859,3.859,0,0,0,4.189,0l.862-.549a.66.66,0,0,1,.754,0l.858.549a3.864,3.864,0,0,0,4.2,0l.84-.541a.679.679,0,0,1,.848.074,1.474,1.474,0,0,1,.361,1.705l-2.968,6.873a3.822,3.822,0,0,0-.313,1.36,16.308,16.308,0,0,1-3.391.341,15.355,15.355,0,0,1-4.655-.676,1.594,1.594,0,0,0-.4-.076,3.7,3.7,0,0,0-.267-.947ZM19.06,16.818a3.752,3.752,0,0,0,1.119-.908,1.678,1.678,0,0,0,.251.11,18.282,18.282,0,0,0,5.657.838,19.072,19.072,0,0,0,4.663-.555,3.86,3.86,0,0,0,.74.517c9.642,5.11,15.871,14.218,15.871,23.2,0,11.463-9.907,20.79-22.084,20.79s-22.09-9.327-22.09-20.79c0-8.988,6.231-18.1,15.873-23.205" fill="#f5893e"/>
    <path id="Path_88" data-name="Path 88" d="M81.045,153.571h0a4.558,4.558,0,1,0-3.225-7.779l0,0a4.555,4.555,0,0,0,3.227,7.777m-.967-5.527a1.372,1.372,0,0,1,1.941,1.939,1.372,1.372,0,1,1-1.941-1.939" transform="translate(-61.234 -115.645)" fill="#f5893e"/>
    <path id="Path_89" data-name="Path 89" d="M85.367,168.84a1.594,1.594,0,0,0,2.254,0l13.264-13.264a1.594,1.594,0,0,0-2.254-2.254L85.367,166.586a1.594,1.594,0,0,0,0,2.254" transform="translate(-67.966 -122.366)" fill="#f5893e"/>
  </g>
</svg>
