<svg xmlns="http://www.w3.org/2000/svg" width="40.422" height="40.5" viewBox="0 0 40.422 40.5">
  <g id="ico-orange-rain" transform="translate(0.25 0.25)">
    <path id="Path_68" data-name="Path 68" d="M33.562,25.881H9.235A8.591,8.591,0,0,1,7.37,8.875,9.385,9.385,0,0,1,25.19,5.3a7.47,7.47,0,0,1,9.619,7.177,6.751,6.751,0,0,1-1.247,13.4ZM16.72,2.458A6.806,6.806,0,0,0,9.886,9.822a1.235,1.235,0,0,1-1.145,1.333,6.141,6.141,0,0,0,.494,12.269H33.562a4.3,4.3,0,1,0-.125-8.6,1.235,1.235,0,0,1-1.223-1.473A4.979,4.979,0,0,0,25.051,7.99a1.254,1.254,0,0,1-1.763-.737,6.9,6.9,0,0,0-6.567-4.8Z" transform="translate(-0.502)" fill="#f5893e" stroke="#f5893e" stroke-width="0.5"/>
    <path id="Path_69" data-name="Path 69" d="M297.711,368.369a1.23,1.23,0,0,1-1.1-1.779l2.458-4.915a1.229,1.229,0,0,1,2.2,1.1l-2.458,4.915A1.229,1.229,0,0,1,297.711,368.369Z" transform="translate(-273.354 -332.67)" fill="#f5893e" stroke="#f5893e" stroke-width="0.5"/>
    <path id="Path_70" data-name="Path 70" d="M441.711,368.369a1.23,1.23,0,0,1-1.1-1.779l2.458-4.915a1.229,1.229,0,0,1,2.2,1.1l-2.458,4.915A1.229,1.229,0,0,1,441.711,368.369Z" transform="translate(-406.091 -332.67)" fill="#f5893e" stroke="#f5893e" stroke-width="0.5"/>
    <path id="Path_71" data-name="Path 71" d="M153.711,368.369a1.23,1.23,0,0,1-1.1-1.779l2.458-4.915a1.229,1.229,0,0,1,2.2,1.1l-2.458,4.915A1.229,1.229,0,0,1,153.711,368.369Z" transform="translate(-140.606 -332.67)" fill="#f5893e" stroke="#f5893e" stroke-width="0.5"/>
    <path id="Path_72" data-name="Path 72" d="M9.711,368.369a1.23,1.23,0,0,1-1.1-1.779l2.458-4.915a1.229,1.229,0,0,1,2.2,1.1l-2.458,4.915a1.229,1.229,0,0,1-1.1.68Z" transform="translate(-7.869 -332.67)" fill="#f5893e" stroke="#f5893e" stroke-width="0.5"/>
    <path id="Path_73" data-name="Path 73" d="M201.711,424.369a1.23,1.23,0,0,1-1.1-1.779l2.458-4.915a1.229,1.229,0,1,1,2.2,1.1l-2.458,4.915A1.229,1.229,0,0,1,201.711,424.369Z" transform="translate(-184.855 -384.369)" fill="#f5893e" stroke="#f5893e" stroke-width="0.5"/>
    <path id="Path_74" data-name="Path 74" d="M345.711,424.369a1.23,1.23,0,0,1-1.1-1.779l2.458-4.915a1.229,1.229,0,1,1,2.2,1.1l-2.458,4.915A1.229,1.229,0,0,1,345.711,424.369Z" transform="translate(-317.603 -384.369)" fill="#f5893e" stroke="#f5893e" stroke-width="0.5"/>
    <path id="Path_75" data-name="Path 75" d="M57.711,424.369a1.23,1.23,0,0,1-1.1-1.779l2.458-4.915a1.229,1.229,0,1,1,2.2,1.1l-2.458,4.915A1.229,1.229,0,0,1,57.711,424.369Z" transform="translate(-52.182 -384.369)" fill="#f5893e" stroke="#f5893e" stroke-width="0.5"/>
  </g>
</svg>
