<svg xmlns="http://www.w3.org/2000/svg" width="82" height="14" viewBox="0 0 82 14">
  <g id="ico-orange-stars" transform="translate(-170 -6759)">
    <g id="Rating_Star" data-name="Rating Star" transform="translate(238 6759)">
      <path id="Polygon_2" data-name="Polygon 2" d="M6.548.958a.5.5,0,0,1,.9,0l1.6,3.4a.5.5,0,0,0,.376.281l3.611.56a.5.5,0,0,1,.282.843L10.686,8.758a.5.5,0,0,0-.135.428l.612,3.8a.5.5,0,0,1-.735.518L7.241,11.753a.5.5,0,0,0-.482,0L3.571,13.506a.5.5,0,0,1-.735-.518l.612-3.8a.5.5,0,0,0-.135-.428L.674,6.042A.5.5,0,0,1,.956,5.2l3.611-.56a.5.5,0,0,0,.376-.281Z" fill="#f5893e"/>
    </g>
    <g id="Rating_Star-2" data-name="Rating Star" transform="translate(221 6759)">
      <path id="Polygon_2-2" data-name="Polygon 2" d="M6.548.958a.5.5,0,0,1,.9,0l1.6,3.4a.5.5,0,0,0,.376.281l3.611.56a.5.5,0,0,1,.282.843L10.686,8.758a.5.5,0,0,0-.135.428l.612,3.8a.5.5,0,0,1-.735.518L7.241,11.753a.5.5,0,0,0-.482,0L3.571,13.506a.5.5,0,0,1-.735-.518l.612-3.8a.5.5,0,0,0-.135-.428L.674,6.042A.5.5,0,0,1,.956,5.2l3.611-.56a.5.5,0,0,0,.376-.281Z" fill="#f5893e"/>
    </g>
    <g id="Rating_Star-3" data-name="Rating Star" transform="translate(204 6759)">
      <path id="Polygon_2-3" data-name="Polygon 2" d="M6.548.958a.5.5,0,0,1,.9,0l1.6,3.4a.5.5,0,0,0,.376.281l3.611.56a.5.5,0,0,1,.282.843L10.686,8.758a.5.5,0,0,0-.135.428l.612,3.8a.5.5,0,0,1-.735.518L7.241,11.753a.5.5,0,0,0-.482,0L3.571,13.506a.5.5,0,0,1-.735-.518l.612-3.8a.5.5,0,0,0-.135-.428L.674,6.042A.5.5,0,0,1,.956,5.2l3.611-.56a.5.5,0,0,0,.376-.281Z" fill="#f5893e"/>
    </g>
    <g id="Rating_Star-4" data-name="Rating Star" transform="translate(187 6759)">
      <path id="Polygon_2-4" data-name="Polygon 2" d="M6.548.958a.5.5,0,0,1,.9,0l1.6,3.4a.5.5,0,0,0,.376.281l3.611.56a.5.5,0,0,1,.282.843L10.686,8.758a.5.5,0,0,0-.135.428l.612,3.8a.5.5,0,0,1-.735.518L7.241,11.753a.5.5,0,0,0-.482,0L3.571,13.506a.5.5,0,0,1-.735-.518l.612-3.8a.5.5,0,0,0-.135-.428L.674,6.042A.5.5,0,0,1,.956,5.2l3.611-.56a.5.5,0,0,0,.376-.281Z" fill="#f5893e"/>
    </g>
    <g id="Rating_Star-5" data-name="Rating Star" transform="translate(170 6759)">
      <path id="Polygon_2-5" data-name="Polygon 2" d="M6.548.958a.5.5,0,0,1,.9,0l1.6,3.4a.5.5,0,0,0,.376.281l3.611.56a.5.5,0,0,1,.282.843L10.686,8.758a.5.5,0,0,0-.135.428l.612,3.8a.5.5,0,0,1-.735.518L7.241,11.753a.5.5,0,0,0-.482,0L3.571,13.506a.5.5,0,0,1-.735-.518l.612-3.8a.5.5,0,0,0-.135-.428L.674,6.042A.5.5,0,0,1,.956,5.2l3.611-.56a.5.5,0,0,0,.376-.281Z" fill="#f5893e"/>
    </g>
  </g>
</svg>
