<svg xmlns="http://www.w3.org/2000/svg" width="16.001" height="16" viewBox="0 0 16.001 16">
  <g id="ico-red-cross" transform="translate(0 -0.359)">
    <path id="Path_58" data-name="Path 58" d="M15.591,13.31,3.051.77a1.4,1.4,0,0,0-1.98,0l-.661.66a1.4,1.4,0,0,0,0,1.98l12.54,12.54a1.4,1.4,0,0,0,1.98,0l.66-.66A1.4,1.4,0,0,0,15.591,13.31Zm0,0" transform="translate(0)" fill="#f74920"/>
    <path id="Path_59" data-name="Path 59" d="M12.95.772.41,13.312a1.4,1.4,0,0,0,0,1.98l.66.66a1.4,1.4,0,0,0,1.98,0L15.591,3.413a1.4,1.4,0,0,0,0-1.98l-.66-.66A1.4,1.4,0,0,0,12.95.772Zm0,0" transform="translate(0 -0.003)" fill="#f74920"/>
  </g>
</svg>
